<svg xmlns="http://www.w3.org/2000/svg" viewBox="0 0 360 72" fill="none">
  <rect x="0" y="4" width="64" height="64" rx="14" fill="#FF5A1F"/>
  <path d="M12 22c6 0 10 2 12 4v28c-2-2-6-3.5-12-3.5V22zm40 0c-6 0-10 2-12 4v28c2-2 6-3.5 12-3.5V22z" fill="#fff"/>
  <path d="M32 26v28" stroke="#FF5A1F" stroke-width="2.5" stroke-linecap="round"/>
  <path d="M48 14l1.4 3L52.5 18.5l-3.1 1.4L48 23l-1.4-3.1L43.5 18.5l3.1-1.5L48 14z" fill="#fff"/>
  <text x="80" y="34" font-family="Manrope, Plus Jakarta Sans, Arial, sans-serif" font-size="28" font-weight="800" fill="#172033">Aula Viva</text>
  <text x="80" y="58" font-family="Manrope, Plus Jakarta Sans, Arial, sans-serif" font-size="18" font-weight="700" fill="#FF5A1F">Hist&#243;ria</text>
</svg>
