<svg xmlns="http://www.w3.org/2000/svg" viewBox="0 0 280 64" fill="none">
  <rect x="0" y="0" width="64" height="64" rx="16" fill="#FF5A1F"/>
  <path d="M10 18c8.5 0 14 3.2 18 6.5V50c-4-3-9.5-5.5-18-5.5V18z" fill="#FFFFFF"/>
  <path d="M54 18c-8.5 0-14 3.2-18 6.5V50c4-3 9.5-5.5 18-5.5V18z" fill="#FFFFFF"/>
  <path d="M32 24.5V50" stroke="#FF5A1F" stroke-width="3" stroke-linecap="round"/>
  <path d="M50 9l1.8 3.8L56 14.5l-4.2 1.7L50 20l-1.8-3.8L44 14.5l4.2-1.7L50 9z" fill="#FFFFFF"/>
  <!-- Wordmark as paths omitted: use BrandLogo component in UI -->
  <g fill="#172033">
    <text x="80" y="30" font-family="Arial Black, Arial, sans-serif" font-size="22" font-weight="800">Aula Viva</text>
  </g>
  <text x="80" y="52" font-family="Arial, sans-serif" font-size="14" font-weight="700" fill="#FF5A1F">Historia</text>
</svg>
