<svg xmlns="http://www.w3.org/2000/svg" viewBox="0 0 280 64" fill="none">
  <!-- book icon -->
  <path d="M18 18c9 0 14 3.5 18 6.5V50c-4-3-9-5-18-5V18z" fill="#FF5A1F" opacity="0.95"/>
  <path d="M54 18c-9 0-14 3.5-18 6.5V50c4-3 9-5 18-5V18z" fill="#FF5A1F"/>
  <path d="M18 18c9 0 14 3.5 18 6.5V50c-4-3-9-5-18-5V18z" stroke="#172033" stroke-width="2.5" fill="none"/>
  <path d="M54 18c-9 0-14 3.5-18 6.5V50c4-3 9-5 18-5V18z" stroke="#172033" stroke-width="2.5" fill="none"/>
  <path d="M36 24.5V50" stroke="#172033" stroke-width="2.5" stroke-linecap="round"/>
  <!-- spark -->
  <path d="M36 8l1.2 2.8L40 12l-2.8 1.2L36 16l-1.2-2.8L32 12l2.8-1.2L36 8z" fill="#FF5A1F"/>
  <path d="M44 10v4M28 10v4M40 6.5l2 2M32 6.5l-2 2" stroke="#FF5A1F" stroke-width="1.6" stroke-linecap="round"/>
  <!-- wordmark -->
  <text x="70" y="30" font-family="Manrope, Plus Jakarta Sans, Arial, sans-serif" font-size="22" font-weight="800">
    <tspan fill="#172033">Aula </tspan><tspan fill="#FF5A1F">Viva</tspan>
  </text>
  <text x="70" y="52" font-family="Manrope, Plus Jakarta Sans, Arial, sans-serif" font-size="20" font-weight="800" fill="#172033">Hist&#243;ria</text>
</svg>
